<svg width="22" height="22" viewBox="0 0 22 22" fill="none" xmlns="http://www.w3.org/2000/svg">
<path fill-rule="evenodd" clip-rule="evenodd" d="M11.0001 2.12705C13.8919 2.12705 14.2313 2.13994 15.3743 2.1915C16.4313 2.23877 17.0028 2.41494 17.3853 2.56533C17.8923 2.76299 18.2532 2.99502 18.6313 3.37314C19.0095 3.75127 19.2458 4.11221 19.4392 4.61924C19.5853 5.00166 19.7657 5.57314 19.813 6.63018C19.8646 7.77314 19.8774 8.1126 19.8774 11.0044C19.8774 13.8962 19.8646 14.2356 19.813 15.3786C19.7657 16.4356 19.5896 17.0071 19.4392 17.3896C19.2415 17.8966 19.0095 18.2575 18.6313 18.6356C18.2532 19.0138 17.8923 19.2501 17.3853 19.4435C17.0028 19.5896 16.4313 19.77 15.3743 19.8173C14.2313 19.8688 13.8919 19.8817 11.0001 19.8817C8.1083 19.8817 7.76885 19.8688 6.62588 19.8173C5.56885 19.77 4.99736 19.5938 4.61494 19.4435C4.10791 19.2458 3.74697 19.0138 3.36885 18.6356C2.99072 18.2575 2.75439 17.8966 2.56104 17.3896C2.41494 17.0071 2.23447 16.4356 2.18721 15.3786C2.13564 14.2356 2.12275 13.8962 2.12275 11.0044C2.12275 8.1126 2.13564 7.77314 2.18721 6.63018C2.23447 5.57314 2.41064 5.00166 2.56104 4.61924C2.75869 4.11221 2.99072 3.75127 3.36885 3.37314C3.74697 2.99502 4.10791 2.75869 4.61494 2.56533C4.99736 2.41924 5.56885 2.23877 6.62588 2.1915C7.76885 2.13564 8.1083 2.12705 11.0001 2.12705ZM11.0001 0.17627C8.06103 0.17627 7.6915 0.18916 6.53564 0.240723C5.38408 0.292285 4.59775 0.477051 3.91025 0.743457C3.19697 1.01846 2.59541 1.39229 1.99385 1.99385C1.39229 2.59541 1.02275 3.20127 0.743457 3.91025C0.477051 4.59775 0.292285 5.38408 0.240723 6.53994C0.18916 7.6915 0.17627 8.06103 0.17627 11.0001C0.17627 13.9392 0.18916 14.3087 0.240723 15.4646C0.292285 16.6161 0.477051 17.4024 0.743457 18.0942C1.01846 18.8075 1.39229 19.4091 1.99385 20.0106C2.59541 20.6122 3.20127 20.9817 3.91025 21.261C4.59775 21.5274 5.38408 21.7122 6.53994 21.7638C7.6958 21.8153 8.06104 21.8282 11.0044 21.8282C13.9478 21.8282 14.313 21.8153 15.4688 21.7638C16.6204 21.7122 17.4067 21.5274 18.0985 21.261C18.8118 20.986 19.4134 20.6122 20.0149 20.0106C20.6165 19.4091 20.986 18.8032 21.2653 18.0942C21.5317 17.4067 21.7165 16.6204 21.7681 15.4646C21.8196 14.3087 21.8325 13.9435 21.8325 11.0001C21.8325 8.05674 21.8196 7.6915 21.7681 6.53564C21.7165 5.38408 21.5317 4.59775 21.2653 3.90596C20.9903 3.19268 20.6165 2.59111 20.0149 1.98955C19.4134 1.38799 18.8075 1.01846 18.0985 0.73916C17.411 0.472754 16.6247 0.287988 15.4688 0.236426C14.3087 0.18916 13.9392 0.17627 11.0001 0.17627ZM11.0001 5.43994C7.93213 5.43994 5.43994 7.92783 5.43994 11.0001C5.43994 14.0724 7.93213 16.5603 11.0001 16.5603C14.0681 16.5603 16.5603 14.0681 16.5603 11.0001C16.5603 7.93213 14.0681 5.43994 11.0001 5.43994ZM11.0001 14.6095C9.00635 14.6095 7.39072 12.9938 7.39072 11.0001C7.39072 9.00635 9.00635 7.39072 11.0001 7.39072C12.9938 7.39072 14.6095 9.00635 14.6095 11.0001C14.6095 12.9938 12.9938 14.6095 11.0001 14.6095ZM18.0768 5.22081C18.0768 5.93749 17.4958 6.51847 16.7791 6.51847C16.0624 6.51847 15.4814 5.93749 15.4814 5.22081C15.4814 4.50414 16.0624 3.92316 16.7791 3.92316C17.4958 3.92316 18.0768 4.50414 18.0768 5.22081Z" fill="#D4D7E6"/>
</svg>
