<svg width="149" height="69" viewBox="0 0 149 69" fill="none" xmlns="http://www.w3.org/2000/svg">
<path d="M3.84103 24.189L0 12.5783L2.56069 11.6107C3.20086 11.4494 4.00107 11.4494 4.64125 11.6107C5.28142 11.772 5.76155 12.0945 6.08163 12.7395C6.40172 13.062 6.56176 13.3845 6.7218 13.8683C7.04189 14.6746 7.04189 15.3197 6.7218 15.9647C6.56176 16.126 6.40172 16.4485 6.24168 16.6097C6.7218 16.6097 7.04189 16.771 7.52202 17.0935C7.8421 17.416 8.00215 17.7386 8.32223 18.0611C8.48228 18.2223 8.48228 18.5449 8.64232 18.8674C8.96241 19.6737 8.96241 20.3187 8.80236 20.8025C8.80236 21.2863 8.48228 21.7701 8.16219 22.0926C8.00215 22.5764 7.52202 22.8989 7.04189 23.0601L3.84103 24.189ZM3.52095 16.6097L4.32116 16.2872C4.80129 16.126 5.12137 15.6422 5.12137 15.1584C5.12137 14.9971 5.12137 14.6746 4.96133 14.3521C4.64125 14.0296 4.4812 13.7071 4.16112 13.5458C3.84103 13.3845 3.52095 13.3845 3.20086 13.5458L2.40064 13.7071L3.52095 16.6097ZM5.12137 21.7701L5.92159 21.4475C6.56176 21.2863 6.88185 20.8025 6.88185 20.1575C6.88185 19.9962 6.88185 19.6737 6.7218 19.3512C6.56176 18.7061 6.24168 18.2223 5.92159 18.0611C5.6015 17.8998 5.28142 17.8998 4.80129 18.0611L4.00107 18.3836L5.12137 21.7701Z" fill="#313030"/>
<path d="M18.8851 19.6737C18.0849 19.835 17.4447 19.835 16.6445 19.3512C16.0043 19.0287 15.5242 18.3836 15.3641 17.5773L12.9635 8.5468L14.724 8.06302L17.1246 17.0936C17.1246 17.4161 17.2847 17.5773 17.6047 17.7386C17.9248 17.8999 18.0849 17.8999 18.405 17.8999C18.725 17.8999 18.8851 17.7386 19.0451 17.4161C19.2052 17.0936 19.2052 16.9323 19.2052 16.6098L16.8045 7.57924L18.565 7.09546L20.9656 16.2873C21.1257 17.0936 21.1257 17.7386 20.6456 18.5449C20.1654 19.0287 19.5253 19.5125 18.8851 19.6737Z" fill="#313030"/>
<path d="M28.4877 4.83768C29.4479 4.67642 30.2482 4.83768 30.8883 5.1602C31.3685 5.48272 31.6885 6.12776 31.8486 7.09531L32.1687 8.86917C32.3287 9.67547 32.1687 10.4818 31.6885 11.2881L34.0892 16.2871L32.1687 16.6096L30.2482 12.2556H30.0881L29.1279 12.4169L30.0881 16.9322L28.3276 17.2547L25.927 5.32146L28.4877 4.83768ZM30.2482 7.41783C30.0881 6.77279 29.768 6.45027 28.9678 6.61153L27.8475 6.77279L28.6477 10.643L29.768 10.4818C30.0881 10.4818 30.2482 10.3205 30.4082 9.99799C30.5682 9.67547 30.5682 9.51421 30.5682 9.19169L30.2482 7.41783Z" fill="#313030"/>
<path d="M43.2116 14.836C42.4114 14.9972 41.7712 14.836 41.1311 14.3522C40.4909 13.8684 40.1708 13.2234 40.0108 12.4171L39.0505 5.80544C38.8905 4.99914 39.0505 4.35411 39.5306 3.70907C40.0108 3.06403 40.6509 2.74151 41.4511 2.58025C42.2514 2.41899 42.8915 2.58025 43.5317 3.06403C44.1719 3.54781 44.492 4.19285 44.652 4.99914L44.812 6.28922L42.8915 6.61174L42.7315 5.1604C42.7315 4.83788 42.5714 4.67662 42.2514 4.51536C42.0913 4.35411 41.7712 4.19285 41.4511 4.35411C41.1311 4.35411 40.971 4.51536 40.811 4.83788C40.6509 4.99914 40.6509 5.32166 40.6509 5.64418L41.6112 12.0946C41.6112 12.4171 41.7712 12.5784 42.0913 12.7396C42.2514 12.9009 42.5714 13.0621 42.8915 12.9009C43.2116 12.9009 43.3717 12.7396 43.5317 12.4171C43.6917 12.2558 43.8518 11.9333 43.6917 11.6108L43.3717 9.1919L42.4114 9.35316L42.0913 7.5793L44.9721 7.09552L45.6123 11.2883C45.7723 12.0946 45.6123 12.7396 45.1321 13.3847C44.652 14.3522 44.0118 14.6747 43.2116 14.836Z" fill="#313030"/>
<path d="M52.4941 13.5459L51.5338 1.29018L56.6552 0.806396L56.8152 2.74151L53.4543 3.06403L53.7744 6.28923L56.1751 6.12797L56.3351 7.90183L53.9345 8.22435L54.2545 11.4495L57.6154 11.127L57.7755 13.0621L52.4941 13.5459Z" fill="#313030"/>
<path d="M66.4179 0.32251C67.3781 0.32251 68.1784 0.48377 68.6585 1.12881C69.1386 1.61259 69.4587 2.25763 69.4587 3.22519V4.99904C69.4587 5.80534 69.1386 6.61164 68.4984 7.25668L70.0989 12.5783H68.1784L66.898 8.06298H66.738H65.6177L65.7777 12.5783H64.0172L63.5371 0.32251H66.4179ZM67.6982 3.22519C67.6982 2.58015 67.3781 2.25763 66.5779 2.25763H65.4576L65.6177 6.12786H66.738C67.0581 6.12786 67.2181 5.9666 67.5382 5.80534C67.6982 5.64408 67.8583 5.32156 67.8583 4.99904L67.6982 3.22519Z" fill="#313030"/>
<path d="M95.0655 10.482C95.0655 11.2883 94.7454 11.9333 94.1053 12.4171C93.4651 12.9009 92.8249 13.2234 92.0247 13.0621L89.1439 12.9009L90.1042 0.806396L92.9849 0.967656C93.7852 0.967656 94.4253 1.29018 94.9055 1.93521C95.3856 2.58025 95.7057 3.22529 95.5456 4.03159L95.0655 10.482ZM91.0644 11.127L92.1847 11.2883C92.5048 11.2883 92.6649 11.2883 92.9849 10.9658C93.145 10.8045 93.305 10.482 93.305 10.3207L93.7852 4.03159C93.7852 3.70907 93.7852 3.54781 93.4651 3.22529C93.305 3.06403 92.985 2.90277 92.8249 2.90277L91.7046 2.74151L91.0644 11.127Z" fill="#313030"/>
<path d="M102.748 0L104.508 0.16126L103.868 2.90268L102.748 2.74142V0Z" fill="#313030"/>
<path d="M113.951 15.9647L108.989 15.1584L111.07 3.06396L112.83 3.38648L111.07 13.5458L114.271 14.1909L113.951 15.9647Z" fill="#313030"/>
<path d="M122.642 5.17576L120.099 17.1606L121.821 17.5316L124.364 5.54667L122.642 5.17576Z" fill="#313030"/>
<path d="M131.075 19.9961C130.275 19.8349 129.635 19.3511 129.315 18.706C128.995 18.061 128.835 17.2547 128.995 16.4484L130.755 9.99802C130.915 9.19172 131.395 8.54668 132.035 8.22416C132.676 7.90164 133.476 7.74038 134.276 7.90164C135.076 8.0629 135.716 8.54668 136.037 9.19172C136.357 9.83676 136.517 10.6431 136.357 11.4494L136.037 12.7394L134.276 12.2557L134.596 10.8043C134.596 10.4818 134.596 10.3205 134.436 9.99802C134.276 9.83676 134.116 9.6755 133.796 9.6755C133.476 9.6755 133.316 9.6755 132.996 9.83676C132.676 9.99802 132.516 10.1593 132.516 10.4818L130.755 16.9322C130.755 17.2547 130.755 17.416 130.915 17.7385C131.075 18.061 131.235 18.2223 131.555 18.2223C131.875 18.2223 132.035 18.2223 132.356 18.061C132.676 17.8997 132.836 17.7385 132.836 17.416L133.316 15.8034L135.076 16.2872L134.596 17.8997C134.436 18.706 133.956 19.3511 133.316 19.6736C132.676 19.9961 131.875 20.1574 131.075 19.9961Z" fill="#313030"/>
<path d="M140.198 22.415L144.039 10.9656L149 12.5782L148.36 14.352L145.159 13.2232L144.199 16.4484L146.439 17.2547L145.799 19.0286L143.559 18.2223L142.438 21.2862L145.639 22.415L144.999 24.1889L140.198 22.415Z" fill="#313030"/>
<path d="M22.8862 54.1833C22.8862 54.6671 22.5661 54.8284 22.246 54.8284C21.9259 54.8284 21.6058 54.5058 21.6058 54.1833C21.6058 53.8608 21.9259 53.5383 22.246 53.5383C22.5661 53.377 22.8862 53.6995 22.8862 54.1833Z" fill="#313030"/>
<path d="M27.0472 54.9896L26.7271 55.6346H25.7668L27.3673 51.7644H28.3275L29.928 55.6346H28.9677L28.6476 54.9896H27.0472ZM27.8474 52.732L27.2072 54.1833H28.3275L27.8474 52.732Z" fill="#313030"/>
<path d="M36.3298 55.6346V53.2157L35.3695 55.3121H34.7293L33.7691 53.2157V55.6346H32.9689V51.7644H33.9291L35.0494 54.022L36.0097 51.7644H37.13V55.6346H36.3298Z" fill="#313030"/>
<path d="M41.4511 52.5707V53.377H43.3716V54.022H41.4511V54.8283H43.5317V55.6346H40.4908V51.7644H43.5317V52.5707H41.4511Z" fill="#313030"/>
<path d="M48.493 54.5058H47.6928V55.6346H46.7325V51.7644H48.493C49.4533 51.7644 50.0934 52.2482 50.0934 53.0545C50.0934 53.6995 49.7734 54.022 49.4533 54.3446L50.2535 55.6346H49.1332L48.493 54.5058ZM48.493 53.8608C48.9731 53.8608 49.1332 53.6995 49.1332 53.2157C49.1332 52.8932 48.8131 52.5707 48.493 52.5707H47.6928V53.8608H48.493Z" fill="#313030"/>
<path d="M54.4146 51.7644H53.4543V55.6346H54.4146V51.7644Z" fill="#313030"/>
<path d="M60.9764 52.4094L60.3362 53.0545C60.0161 52.732 59.6961 52.5707 59.376 52.5707C58.7358 52.5707 58.2557 53.0545 58.2557 53.6995C58.2557 54.3446 58.7358 54.8283 59.376 54.8283C59.6961 54.8283 60.0161 54.6671 60.3362 54.3446L60.9764 54.9896C60.4963 55.4734 60.0161 55.6346 59.376 55.6346C58.2557 55.6346 57.2954 54.8283 57.2954 53.6995C57.2954 52.5707 58.0956 51.7644 59.376 51.7644C60.0161 51.7644 60.6563 52.0869 60.9764 52.4094Z" fill="#313030"/>
<path d="M64.9775 54.9896L64.6574 55.6346H63.6971L65.2976 51.7644H66.2578L67.8583 55.6346H66.898L66.5779 54.9896H64.9775ZM65.7777 52.732L65.2976 54.1833H66.4179L65.7777 52.732Z" fill="#313030"/>
<path d="M73.6198 55.6346L71.8593 53.2157V55.6346H70.899V51.7644H71.6993L73.4597 54.1833V51.7644H74.42V55.6346H73.6198Z" fill="#313030"/>
<path d="M82.5822 52.5707V53.377H84.3427V54.1833H82.5822V55.6346H81.6219V51.7644H84.5027V52.5707H82.5822Z" fill="#313030"/>
<path d="M91.5445 53.6995C91.5445 54.8283 90.5843 55.6346 89.464 55.6346C88.3437 55.6346 87.3834 54.8283 87.3834 53.6995C87.3834 52.5707 88.3437 51.7644 89.464 51.7644C90.5843 51.7644 91.5445 52.5707 91.5445 53.6995ZM88.3437 53.6995C88.3437 54.3446 88.8238 54.8283 89.464 54.8283C90.1042 54.8283 90.5843 54.3446 90.5843 53.6995C90.5843 53.0545 90.1042 52.5707 89.464 52.5707C88.8238 52.5707 88.3437 53.0545 88.3437 53.6995Z" fill="#313030"/>
<path d="M98.4264 53.6995C98.4264 54.8283 97.4661 55.6346 96.3458 55.6346C95.2255 55.6346 94.2653 54.8283 94.2653 53.6995C94.2653 52.5707 95.2255 51.7644 96.3458 51.7644C97.4661 51.7644 98.4264 52.5707 98.4264 53.6995ZM95.2255 53.6995C95.2255 54.3446 95.7056 54.8283 96.3458 54.8283C96.986 54.8283 97.4661 54.3446 97.4661 53.6995C97.4661 53.0545 96.986 52.5707 96.3458 52.5707C95.7056 52.5707 95.2255 53.0545 95.2255 53.6995Z" fill="#313030"/>
<path d="M103.228 51.7644C104.508 51.7644 105.308 52.5707 105.308 53.6995C105.308 54.8283 104.508 55.6346 103.228 55.6346H101.627V51.7644H103.228ZM102.588 54.8283H103.228C103.868 54.8283 104.188 54.3446 104.188 53.6995C104.188 53.0545 103.708 52.5707 103.068 52.5707H102.428V54.8283H102.588Z" fill="#313030"/>
<path d="M109.309 51.7644H108.349V55.6346H109.309V51.7644Z" fill="#313030"/>
<path d="M115.391 55.6346L113.631 53.2157V55.6346H112.67V51.7644H113.631L115.391 54.1833V51.7644H116.191V55.6346H115.391Z" fill="#313030"/>
<path d="M122.913 53.6995V55.1509C122.433 55.4734 121.793 55.6346 121.313 55.6346C120.192 55.6346 119.232 54.8283 119.232 53.6995C119.232 52.5707 120.192 51.7644 121.313 51.7644C121.953 51.7644 122.433 51.9257 122.913 52.4094L122.433 53.0545C122.113 52.732 121.793 52.5707 121.473 52.5707C120.832 52.5707 120.352 53.0545 120.352 53.6995C120.352 54.3446 120.832 54.8283 121.473 54.8283C121.633 54.8283 121.953 54.8283 122.113 54.6671V53.6995H122.913Z" fill="#313030"/>
<path d="M127.394 54.1833C127.394 54.6671 127.074 54.8284 126.754 54.8284C126.434 54.8284 126.114 54.5058 126.114 54.1833C126.114 53.8608 126.434 53.5383 126.754 53.5383C127.234 53.377 127.394 53.6995 127.394 54.1833Z" fill="#313030"/>
<path d="M35.0494 36.4447V32.5745H36.8099V33.0582H35.6896V34.1871H36.4898V34.8321H35.6896V35.7997H36.8099V36.4447H35.0494Z" fill="#313030"/>
<path d="M41.2911 35.477C41.2911 35.7995 41.2911 35.9608 41.1311 36.1221C40.9711 36.2833 40.971 36.2833 40.651 36.4446C40.4909 36.4446 40.4909 36.4446 40.3309 36.4446C40.1708 36.4446 39.8507 36.4446 39.6907 36.2833C39.5307 36.1221 39.5307 36.1221 39.3706 35.9608C39.3706 35.7995 39.2106 35.6383 39.2106 35.477H39.6907C39.6907 35.6383 39.8508 35.7995 39.8508 35.9608L40.0108 36.1221C40.1708 36.1221 40.1708 36.1221 40.3309 35.9608C40.3309 35.9608 40.3309 35.7995 40.3309 35.6383C40.3309 35.477 40.3309 35.3158 40.1708 35.1545C40.0108 34.9932 39.8507 34.832 39.6907 34.6707C39.5307 34.5095 39.3706 34.3482 39.2106 34.1869C39.0505 34.0257 39.0505 33.8644 39.0505 33.7032C39.0505 33.3806 39.2106 33.0581 39.3706 32.8969C39.5307 32.7356 39.6907 32.7356 39.8508 32.7356C40.0108 32.7356 40.1708 32.7356 40.3309 32.8969C40.4909 32.8969 40.4909 33.0581 40.651 33.2194C40.651 33.3806 40.811 33.5419 40.811 33.7032L40.3309 33.8644C40.3309 33.7032 40.3309 33.5419 40.1708 33.5419L40.0108 33.3806C39.8508 33.3806 39.8507 33.3806 39.6907 33.5419C39.6907 33.5419 39.6907 33.7032 39.6907 33.8644C39.6907 34.0257 39.6907 34.1869 39.8508 34.3482C39.8508 34.3482 40.0108 34.5095 40.1708 34.6707C40.3309 34.832 40.3309 34.832 40.4909 34.832C40.651 34.9932 40.811 35.1545 40.811 35.3158C40.811 35.3158 40.811 35.477 40.9711 35.477C41.1311 35.3158 41.2911 35.3158 41.2911 35.477Z" fill="#313030"/>
<path d="M44.3319 33.0582H43.6918V32.5745H45.6123V33.0582H44.9721V36.4447H44.3319V33.0582Z" fill="#313030"/>
<path d="M48.6531 35.7996H48.0129V36.4446H48.6531V35.7996Z" fill="#313030"/>
<path d="M100.027 33.7033C100.027 33.3808 100.187 33.0582 100.347 32.897C100.507 32.7357 100.667 32.5745 100.987 32.5745C101.307 32.5745 101.467 32.7357 101.627 32.897C101.787 33.0582 101.947 33.3808 101.947 33.542C101.947 33.8645 101.947 34.0258 101.787 34.3483C101.787 34.5096 101.627 34.6708 101.307 34.9934C101.307 35.1546 101.147 35.1546 100.987 35.4771L100.827 35.6384C100.827 35.7997 100.667 35.7997 100.667 35.9609H101.787V36.606H99.8668V36.1222C99.8668 36.1222 99.8668 35.9609 100.027 35.9609L100.187 35.7997L100.347 35.6384C100.507 35.4771 100.507 35.3159 100.827 34.9934C100.987 34.6708 101.147 34.5096 101.307 34.3483C101.307 34.1871 101.467 34.0258 101.467 33.8645C101.467 33.7033 101.467 33.7033 101.307 33.542C101.307 33.3808 101.147 33.3808 100.987 33.3808C100.827 33.3808 100.667 33.542 100.667 33.7033V33.8645V34.0258L100.027 33.7033Z" fill="#313030"/>
<path d="M106.269 35.6384C106.269 35.9609 106.109 36.1222 105.948 36.2834C105.788 36.4447 105.628 36.606 105.308 36.606C104.988 36.606 104.828 36.4447 104.668 36.2834C104.508 36.1222 104.348 35.9609 104.348 35.6384V33.542C104.348 33.2195 104.508 33.0582 104.668 32.897C104.828 32.7357 104.988 32.5745 105.308 32.5745C105.628 32.5745 105.788 32.7357 105.948 32.897C106.109 33.0582 106.269 33.3808 106.269 33.542V35.6384ZM105.628 33.3808C105.628 33.2195 105.628 33.2195 105.468 33.2195L105.308 33.0582C105.148 33.0582 105.148 33.0582 105.148 33.2195L104.988 33.3808V35.4771C104.988 35.6384 104.988 35.6384 105.148 35.6384L105.308 35.7997C105.468 35.7997 105.468 35.7997 105.468 35.6384L105.628 35.4771V33.3808Z" fill="#313030"/>
<path d="M109.149 36.4448V33.3809H108.669V32.8971C108.829 32.8971 108.989 32.8971 109.149 32.7358C109.309 32.5746 109.309 32.5746 109.469 32.4133H109.95V36.2836H109.149V36.4448Z" fill="#313030"/>
<path d="M113.31 33.542C113.31 33.3808 113.31 33.2195 113.31 33.2195L113.15 33.0582C112.99 33.0582 112.99 33.0582 112.99 33.2195C112.99 33.2195 112.99 33.3808 112.99 33.542V34.3483C113.15 34.1871 113.31 34.1871 113.471 34.1871C113.791 34.1871 113.951 34.3483 114.111 34.5096C114.271 34.6708 114.271 34.8321 114.271 35.1546V35.7997C114.271 36.1222 114.111 36.2834 113.951 36.4447C113.791 36.6059 113.631 36.7672 113.31 36.7672C112.99 36.7672 112.83 36.6059 112.67 36.4447C112.51 36.2834 112.35 36.1222 112.35 35.7997V33.7033C112.35 33.542 112.35 33.3808 112.51 33.2195C112.67 33.0582 112.67 32.897 112.83 32.897C112.99 32.897 112.99 32.897 113.15 32.897C113.471 32.897 113.631 33.0582 113.791 33.2195C113.951 33.3808 114.111 33.542 114.111 33.8645V34.0258H113.31V33.542ZM112.67 35.4771C112.67 35.6384 112.67 35.6384 112.67 35.6384L112.83 35.7997C112.99 35.7997 112.99 35.7997 112.99 35.6384V35.4771V34.8321C112.99 34.6708 112.99 34.6708 112.83 34.5096H112.67C112.51 34.5096 112.51 34.5096 112.51 34.6708V34.8321V35.4771H112.67Z" fill="#313030"/>
<path d="M90.5844 31.123C90.1042 31.123 89.9442 30.9617 89.6241 30.6392C89.144 30.3167 88.5038 29.6717 87.3835 29.6717C86.2632 29.6717 85.623 30.1554 85.1429 30.6392C84.8228 30.9617 84.6628 31.123 84.1826 31.123C83.7025 31.123 83.5425 30.9617 83.2224 30.6392C82.7423 30.3167 82.1021 29.6717 80.9818 29.6717C79.8615 29.6717 79.2213 30.1554 78.7412 30.6392C78.4211 30.9617 78.2611 31.123 77.7809 31.123C77.3008 31.123 77.1408 30.9617 76.8207 30.6392C76.3405 30.3167 75.7004 29.6717 74.5801 29.6717C73.4598 29.6717 72.8196 30.1554 72.3395 30.6392C72.0194 30.9617 71.8593 31.123 71.3792 31.123C70.8991 31.123 70.739 30.9617 70.4189 30.6392C69.9388 30.3167 69.2986 29.6717 68.1783 29.6717C67.058 29.6717 66.4179 30.1554 65.9377 30.6392C65.6177 30.9617 65.4576 31.123 64.9775 31.123C64.4974 31.123 64.3373 30.9617 64.0172 30.6392C63.5371 30.3167 62.8969 29.6717 61.7766 29.6717C60.6563 29.6717 60.0162 30.1554 59.536 30.6392C59.2159 30.9617 59.0559 31.123 58.5758 31.123C57.7755 31.123 57.1354 30.478 57.1354 29.6717C57.1354 27.7365 64.0172 22.2537 74.7401 22.2537C85.463 22.2537 92.3448 27.7365 92.3448 29.6717C92.3448 30.1554 92.825 30.6392 93.3051 30.6392C93.7852 30.6392 94.2654 30.1554 94.2654 29.6717C94.2654 25.9627 85.463 20.3186 74.7401 20.3186C64.0172 20.3186 55.2149 25.9627 55.2149 29.6717C55.2149 31.6068 56.8153 33.2194 58.7358 33.2194C59.8561 33.2194 60.4963 32.7356 60.9764 32.2518C61.2965 31.9293 61.4565 31.768 61.9367 31.768C62.4168 31.768 62.5768 31.9293 62.8969 32.2518C63.3771 32.5743 64.0172 33.2194 65.1375 33.2194C66.2578 33.2194 66.898 32.7356 67.3781 32.2518C67.6982 31.9293 67.8583 31.768 68.3384 31.768C68.8185 31.768 68.9786 31.9293 69.2986 32.2518C69.7788 32.5743 70.4189 33.2194 71.5392 33.2194C72.6595 33.2194 73.2997 32.7356 73.7798 32.2518C74.0999 31.9293 74.26 31.768 74.7401 31.768C75.2202 31.768 75.3803 31.9293 75.7004 32.2518C76.1805 32.5743 76.8207 33.2194 77.941 33.2194C79.0613 33.2194 79.7014 32.7356 80.1816 32.2518C80.5017 31.9293 80.6617 31.768 81.1418 31.768C81.622 31.768 81.782 31.9293 82.1021 32.2518C82.5822 32.5743 83.2224 33.2194 84.3427 33.2194C85.463 33.2194 86.1032 32.7356 86.5833 32.2518C86.9034 31.9293 87.0634 31.768 87.5435 31.768C88.0237 31.768 88.1837 31.9293 88.5038 32.2518C88.9839 32.5743 89.6241 33.2194 90.7444 33.2194C91.7047 33.2194 92.1848 33.7032 92.1848 33.8644C92.1848 34.0257 92.0248 34.0257 91.8647 34.1869C91.5446 34.3482 91.0645 34.5095 90.7444 34.5095H58.4157C56.4952 34.5095 54.8948 36.1221 54.8948 38.0572V39.0247C54.8948 40.9599 56.4952 42.5724 58.4157 42.5724H90.5844C92.5049 42.5724 94.1053 40.9599 94.1053 39.0247C94.1053 38.541 93.6252 38.0572 93.1451 38.0572C92.6649 38.0572 92.1848 38.541 92.1848 39.0247C92.1848 39.831 91.5446 40.4761 90.7444 40.4761H58.4157C57.6155 40.4761 56.9753 39.831 56.9753 39.0247V38.0572C56.9753 37.2509 57.6155 36.6058 58.4157 36.6058H90.5844C91.3846 36.6058 92.1848 36.4446 92.825 35.9608C93.4651 35.477 93.9453 34.832 93.9453 34.0257C93.9453 34.0257 93.9453 34.0257 93.9453 33.8644C93.9453 33.8644 93.9453 33.8644 93.9453 33.7032C93.9453 32.2518 92.5049 31.123 90.5844 31.123ZM65.6177 25.9627L64.8174 26.2852C64.6574 26.4465 64.4974 26.6077 64.4974 26.769C64.4974 26.9303 64.4974 27.0915 64.4974 27.2528C64.6574 27.414 64.6574 27.5753 64.9775 27.5753H65.1375C65.4576 27.5753 65.7777 27.414 65.7777 27.0915L65.9377 26.2852C65.9377 26.124 65.9377 26.124 65.9377 25.9627C65.7777 25.9627 65.7777 25.9627 65.6177 25.9627ZM74.9001 25.9627L74.0999 26.2852C73.9399 26.4465 73.7798 26.6077 73.7798 26.769C73.6198 27.0915 73.9399 27.5753 74.26 27.5753H74.42C74.7401 27.5753 75.0602 27.414 75.0602 27.0915L75.2202 26.2852C75.2202 26.124 75.2202 26.124 75.2202 25.9627C75.0602 25.9627 75.0602 25.9627 74.9001 25.9627ZM84.1826 25.9627L83.3824 26.2852C83.2224 26.4465 83.0623 26.6077 83.0623 26.769C82.9023 27.0915 83.2224 27.5753 83.5425 27.5753H83.7025C84.0226 27.5753 84.3427 27.414 84.3427 27.0915L84.5027 26.2852C84.5027 26.124 84.5027 26.124 84.5027 25.9627C84.3427 25.9627 84.3427 25.9627 84.1826 25.9627ZM70.2589 24.6726L69.4587 24.9951C69.2986 24.9951 69.1386 25.3177 69.1386 25.4789C68.9786 25.8014 69.2986 26.2852 69.6187 26.2852H69.7788C70.0989 26.2852 70.4189 26.124 70.4189 25.8014L70.579 24.9951C70.579 24.8339 70.579 24.8339 70.4189 24.6726C70.4189 24.6726 70.4189 24.6726 70.2589 24.6726ZM79.5414 24.6726L78.7412 24.9951C78.5811 25.1564 78.4211 25.3177 78.4211 25.4789C78.4211 25.6402 78.4211 25.8014 78.4211 25.9627C78.5811 26.124 78.5811 26.2852 78.9012 26.2852H79.0613C79.3814 26.2852 79.7014 26.124 79.7014 25.8014L79.8615 24.9951C79.8615 24.8339 79.8615 24.8339 79.8615 24.6726C79.7014 24.6726 79.7014 24.6726 79.5414 24.6726Z" fill="#313030"/>
<path d="M78.7412 63.5364C78.7412 63.3752 78.5811 63.2139 78.4211 63.2139L75.8604 63.0526L74.9002 60.6337C74.7401 60.3112 74.26 60.3112 74.0999 60.6337L73.1397 63.0526L70.579 63.2139C70.4189 63.2139 70.2589 63.3752 70.2589 63.5364C70.2589 63.6977 70.2589 63.8589 70.419 64.0202L72.4995 65.6328L71.8593 68.2129C71.8593 68.3742 71.8593 68.5355 72.0194 68.6967C72.1794 68.858 72.3395 68.858 72.4995 68.6967L74.7401 67.2454L76.9807 68.6967H77.1408C77.3008 68.6967 77.6209 68.5355 77.6209 68.2129V68.0517L76.9807 65.6328L79.0613 64.0202C78.7412 64.0202 78.9012 63.6977 78.7412 63.5364Z" fill="#313030"/>
<path d="M90.7444 64.9877H82.4221C82.2621 64.9877 81.942 64.8264 81.942 64.6652C81.942 64.5039 82.1021 64.1814 82.4221 64.1814H90.7444C90.9044 64.1814 91.2245 64.3427 91.2245 64.6652C91.2245 64.9877 91.0645 64.9877 90.7444 64.9877Z" fill="#313030"/>
<path d="M89.464 67.084H81.1417C80.9817 67.084 80.6616 66.9228 80.6616 66.6002C80.6616 66.439 80.8217 66.1165 81.1417 66.1165H89.464C89.624 66.1165 89.9441 66.2777 89.9441 66.6002C89.7841 66.9228 89.624 67.084 89.464 67.084Z" fill="#313030"/>
<path d="M66.5779 64.9877H58.2556C58.0956 64.9877 57.7755 64.8264 57.7755 64.6652C57.7755 64.5039 57.9356 64.1814 58.2556 64.1814H66.5779C66.7379 64.1814 67.058 64.3427 67.058 64.6652C67.058 64.9877 66.7379 64.9877 66.5779 64.9877Z" fill="#313030"/>
<path d="M67.8583 67.084H59.536C59.376 67.084 59.0559 66.9228 59.0559 66.6002C59.0559 66.439 59.2159 66.1165 59.536 66.1165H67.8583C68.0183 66.1165 68.3384 66.2777 68.3384 66.6002C68.3384 66.9228 68.1784 67.084 67.8583 67.084Z" fill="#313030"/>
</svg>
